<?xml version="1.0" standalone="no"?>
<!DOCTYPE svg PUBLIC "-//W3C//DTD SVG 20010904//EN"
 "http://www.w3.org/TR/2001/REC-SVG-20010904/DTD/svg10.dtd">
<svg version="1.0" xmlns="http://www.w3.org/2000/svg"
 width="800.000000pt" height="800.000000pt" viewBox="0 0 800.000000 800.000000"
 preserveAspectRatio="xMidYMid meet">
<metadata>
Created by potrace 1.11, written by Peter Selinger 2001-2013
</metadata>
<g transform="translate(0.000000,800.000000) scale(0.100000,-0.100000)"
fill="#000000" stroke="none">
<path d="M640 4320 l0 -3680 320 0 320 0 0 -320 0 -320 3040 0 3040 0 0 3680
0 3680 -320 0 -320 0 0 320 0 320 -3040 0 -3040 0 0 -3680z m960 3200 l0 -160
-160 0 -160 0 0 -3200 0 -3200 -160 0 -160 0 0 3360 0 3360 320 0 320 0 0
-160z m4800 0 l0 -160 -2240 0 -2240 0 0 160 0 160 2240 0 2240 0 0 -160z
m-4160 -3840 l0 -3360 -320 0 -320 0 0 3360 0 3360 320 0 320 0 0 -3360z
m4800 0 l0 -3360 -2240 0 -2240 0 0 3360 0 3360 2240 0 2240 0 0 -3360z"/>
<path d="M3360 5590 l0 -160 1440 0 1440 0 0 160 0 160 -1440 0 -1440 0 0
-160z"/>
</g>
</svg>
